# xmcd
#
# Track frame offsets:
#	150
#	13921
#	27479
#	37378
#	48800
#	62368
#	71001
#	82471
#	91156
#	105432
#	118624
#	132174
#	146239
#	160021
#	171741
#	186142
#	199930
#	213597
#	225534
#	235533
#
# Disc length: 3284 seconds
#
# Revision: 2
# Processed by: cddbd v1.5.1PL2 Copyright (c) Steve Scherf et al.
# Submitted via: audiograbber 1.83.01
#
DISCID=220cd214
DTITLE=Dean Martin - In The Cool Of The Evening
DYEAR=2002
DGENRE=Big Band
TTITLE0=Bye, Bye Blackbird
TTITLE1=In The Cool, Cool Of The Evening
TTITLE2=Once In Love With Amy
TTITLE3=Powder Your Face With Sunshine
TTITLE4=That Lucky Old Sun
TTITLE5=I Don't Care If The Sun Don't Shine
TTITLE6=Johnny Get Your Girl
TTITLE7=Night Train To Memphis
TTITLE8=I Love The Way You Say Goodnight
TTITLE9=I'm In Love With You - With Margaret Whiting
TTITLE10=Tarra-ta-larra Ta-lar
TTITLE11=The Money Song - With Jerry Lewis
TTITLE12=You Belong To Me
TTITLE13=I Still Get A Thrill (Thinking Of You)
TTITLE14=I'm Gonna Paper All My Walls With Your Love Letters
TTITLE15=Muskrat Ramble
TTITLE16=That Certain Party - With Jerry Lewis
TTITLE17=Rain
TTITLE18=Zing-a-zing Boom
TTITLE19=Tonda Wanda Hoy
EXTD=
EXTT0=
EXTT1=
EXTT2=
EXTT3=
EXTT4=
EXTT5=
EXTT6=
EXTT7=
EXTT8=
EXTT9=
EXTT10=
EXTT11=
EXTT12=
EXTT13=
EXTT14=
EXTT15=
EXTT16=
EXTT17=
EXTT18=
EXTT19=
PLAYORDER=
